HIERARCHY
ROOT Hips
{
    OFFSET   0.000000   0.000000   0.000000
    CHANNELS 6 Xposition Yposition Zposition Zrotation Xrotation Yrotation
    JOINT Chest
    {
        OFFSET   0.000000   8.007230   0.000000
        CHANNELS 3 Zrotation Xrotation Yrotation
        JOINT Chest2
        {
            OFFSET   0.000000  22.077100   0.000000
            CHANNELS 3 Zrotation Xrotation Yrotation
            JOINT Neck
            {
                OFFSET   0.000000  23.254800   0.000000
                CHANNELS 3 Zrotation Xrotation Yrotation
                JOINT Head
                {
                    OFFSET   0.000010  14.370000   1.956600
                    CHANNELS 3 Zrotation Xrotation Yrotation
                    End Site
                    {
                        OFFSET   0.000000  19.566000   0.000000
                    }
                }
            }
            JOINT LeftCollar
            {
                OFFSET   3.911900  19.017000  -0.467062
                CHANNELS 3 Zrotation Xrotation Yrotation
                JOINT LeftShoulder
                {
                    OFFSET  10.383700   0.000000   0.000000
                    CHANNELS 3 Zrotation Xrotation Yrotation
                    JOINT LeftElbow
                    {
                        OFFSET  26.662100   0.001193   0.000835
                        CHANNELS 3 Zrotation Xrotation Yrotation
                        JOINT LeftWrist
                        {
                            OFFSET  28.869000  -0.000058  -0.000075
                            CHANNELS 3 Zrotation Xrotation Yrotation
                            JOINT LeftFinger0
                            {
                                OFFSET   2.044660  -2.323460   3.252850
                                CHANNELS 3 Zrotation Xrotation Yrotation
                                JOINT LeftFinger01
                                {
                                    OFFSET   3.088130   0.000000   0.000000
                                    CHANNELS 3 Zrotation Xrotation Yrotation
                                    JOINT LeftFinger02
                                    {
                                        OFFSET   2.639450   0.000000   0.000000
                                        CHANNELS 3 Zrotation Xrotation Yrotation
                                        End Site
                                        {
                                            OFFSET   2.582190   0.000000   0.000000
                                        }
                                    }
                                }
                            }
                            JOINT LeftFinger1
                            {
                                OFFSET   8.364480   0.000000   3.252850
                                CHANNELS 3 Zrotation Xrotation Yrotation
                                JOINT LeftFinger11
                                {
                                    OFFSET   4.646920   0.000000   0.000000
                                    CHANNELS 3 Zrotation Xrotation Yrotation
                                    JOINT LeftFinger12
                                    {
                                        OFFSET   2.323460   0.000000   0.000000
                                        CHANNELS 3 Zrotation Xrotation Yrotation
                                        End Site
                                        {
                                            OFFSET   2.273050   0.000000   0.000000
                                        }
                                    }
                                }
                            }
                            JOINT LeftFinger2
                            {
                                OFFSET   8.364490   0.000016   1.078090
                                CHANNELS 3 Zrotation Xrotation Yrotation
                                JOINT LeftFinger21
                                {
                                    OFFSET   5.111620   0.000000   0.000000
                                    CHANNELS 3 Zrotation Xrotation Yrotation
                                    JOINT LeftFinger22
                                    {
                                        OFFSET   2.788150   0.000012   0.000000
                                        CHANNELS 3 Zrotation Xrotation Yrotation
                                        End Site
                                        {
                                            OFFSET   2.727660   0.000000   0.000000
                                        }
                                    }
                                }
                            }
                            JOINT LeftFinger3
                            {
                                OFFSET   7.899780   0.000014  -1.078090
                                CHANNELS 3 Zrotation Xrotation Yrotation
                                JOINT LeftFinger31
                                {
                                    OFFSET   4.646930   0.000000   0.000000
                                    CHANNELS 3 Zrotation Xrotation Yrotation
                                    JOINT LeftFinger32
                                    {
                                        OFFSET   2.323470   0.000000   0.000000
                                        CHANNELS 3 Zrotation Xrotation Yrotation
                                        End Site
                                        {
                                            OFFSET   2.273050   0.000000   0.000000
                                        }
                                    }
                                }
                            }
                            JOINT LeftFinger4
                            {
                                OFFSET   7.435090   0.000000  -3.252850
                                CHANNELS 3 Zrotation Xrotation Yrotation
                                JOINT LeftFinger41
                                {
                                    OFFSET   3.717550   0.000000   0.000000
                                    CHANNELS 3 Zrotation Xrotation Yrotation
                                    JOINT LeftFinger42
                                    {
                                        OFFSET   1.858770   0.000000   0.000000
                                        CHANNELS 3 Zrotation Xrotation Yrotation
                                        End Site
                                        {
                                            OFFSET   1.818440   0.000000   0.000000
                                        }
                                    }
                                }
                            }
                        }
                    }
                }
            }
            JOINT RightCollar
            {
                OFFSET  -3.911900  19.017000  -0.467063
                CHANNELS 3 Zrotation Xrotation Yrotation
                JOINT RightShoulder
                {
                    OFFSET -10.383700   0.000023   0.000000
                    CHANNELS 3 Zrotation Xrotation Yrotation
                    JOINT RightElbow
                    {
                        OFFSET -26.662100   0.001246   0.001011
                        CHANNELS 3 Zrotation Xrotation Yrotation
                        JOINT RightWrist
                        {
                            OFFSET -28.869000  -0.000026  -0.000078
                            CHANNELS 3 Zrotation Xrotation Yrotation
                            JOINT RightFinger0
                            {
                                OFFSET  -2.044660  -2.323490   3.252850
                                CHANNELS 3 Zrotation Xrotation Yrotation
                                JOINT RightFinger01
                                {
                                    OFFSET  -3.088130   0.000000   0.000000
                                    CHANNELS 3 Zrotation Xrotation Yrotation
                                    JOINT RightFinger02
                                    {
                                        OFFSET  -2.639460   0.000000   0.000000
                                        CHANNELS 3 Zrotation Xrotation Yrotation
                                        End Site
                                        {
                                            OFFSET  -2.582190   0.000000   0.000000
                                        }
                                    }
                                }
                            }
                            JOINT RightFinger1
                            {
                                OFFSET  -8.364480   0.000000   3.252850
                                CHANNELS 3 Zrotation Xrotation Yrotation
                                JOINT RightFinger11
                                {
                                    OFFSET  -4.646920   0.000000   0.000000
                                    CHANNELS 3 Zrotation Xrotation Yrotation
                                    JOINT RightFinger12
                                    {
                                        OFFSET  -2.323470   0.000000   0.000000
                                        CHANNELS 3 Zrotation Xrotation Yrotation
                                        End Site
                                        {
                                            OFFSET  -2.273050   0.000000   0.000000
                                        }
                                    }
                                }
                            }
                            JOINT RightFinger2
                            {
                                OFFSET  -8.364480   0.000000   1.078090
                                CHANNELS 3 Zrotation Xrotation Yrotation
                                JOINT RightFinger21
                                {
                                    OFFSET  -5.111620   0.000000   0.000000
                                    CHANNELS 3 Zrotation Xrotation Yrotation
                                    JOINT RightFinger22
                                    {
                                        OFFSET  -2.788160   0.000000   0.000000
                                        CHANNELS 3 Zrotation Xrotation Yrotation
                                        End Site
                                        {
                                            OFFSET  -2.727660   0.000000   0.000000
                                        }
                                    }
                                }
                            }
                            JOINT RightFinger3
                            {
                                OFFSET  -7.899780   0.000000  -1.078090
                                CHANNELS 3 Zrotation Xrotation Yrotation
                                JOINT RightFinger31
                                {
                                    OFFSET  -4.646930   0.000000   0.000000
                                    CHANNELS 3 Zrotation Xrotation Yrotation
                                    JOINT RightFinger32
                                    {
                                        OFFSET  -2.323470   0.000000   0.000000
                                        CHANNELS 3 Zrotation Xrotation Yrotation
                                        End Site
                                        {
                                            OFFSET  -2.273050   0.000000   0.000000
                                        }
                                    }
                                }
                            }
                            JOINT RightFinger4
                            {
                                OFFSET  -7.435090   0.000000  -3.252850
                                CHANNELS 3 Zrotation Xrotation Yrotation
                                JOINT RightFinger41
                                {
                                    OFFSET  -3.717550   0.000000   0.000000
                                    CHANNELS 3 Zrotation Xrotation Yrotation
                                    JOINT RightFinger42
                                    {
                                        OFFSET  -1.858760   0.000000   0.000000
                                        CHANNELS 3 Zrotation Xrotation Yrotation
                                        End Site
                                        {
                                            OFFSET  -1.818440   0.000000   0.000000
                                        }
                                    }
                                }
                            }
                        }
                    }
                }
            }
        }
    }
    JOINT LeftHip
    {
        OFFSET   9.783010   0.000000   0.000000
        CHANNELS 3 Zrotation Xrotation Yrotation
        JOINT LeftKnee
        {
            OFFSET   0.000073 -41.789100   0.001749
            CHANNELS 3 Zrotation Xrotation Yrotation
            JOINT LeftAnkle
            {
                OFFSET   0.000111 -41.133200  -0.000179
                CHANNELS 3 Zrotation Xrotation Yrotation
                JOINT LeftToe
                {
                    OFFSET   0.000000  -6.358960  14.674500
                    CHANNELS 3 Zrotation Xrotation Yrotation
                    End Site
                    {
                        OFFSET   0.000000   0.000000   3.913200
                    }
                }
            }
        }
    }
    JOINT RightHip
    {
        OFFSET  -9.783010   0.000000   0.000000
        CHANNELS 3 Zrotation Xrotation Yrotation
        JOINT RightKnee
        {
            OFFSET   0.000424 -41.789200   0.005205
            CHANNELS 3 Zrotation Xrotation Yrotation
            JOINT RightAnkle
            {
                OFFSET   0.000000 -41.133200  -0.000155
                CHANNELS 3 Zrotation Xrotation Yrotation
                JOINT RightToe
                {
                    OFFSET   0.000000  -6.358960  14.674500
                    CHANNELS 3 Zrotation Xrotation Yrotation
                    End Site
                    {
                        OFFSET   0.000000   0.000000   3.913200
                    }
                }
            }
        }
    }
}
MOTION
Frames: 4
Frame Time:   0.016667
  0.546612  90.013900   0.218340  -0.162714   0.014146  -0.756419   0.061559   0.578438  -0.297430   0.126129   1.156540  -0.595521   2.503110  -1.122240   0.047563   4.116170  -2.262890   3.054460  -5.289160   0.079530   5.131290 -75.876800  19.343100   2.460250  -3.711650  -8.787560 -10.815400   8.119700  -0.300770   6.359460  44.304600  39.979100 -82.773200 -15.307400   0.006705   0.001843  -2.653710   0.001446  -0.001512 -13.929600   2.488700  -9.929960 -11.573900  -0.001527   0.006028  -8.101760  -0.011604   0.003544 -17.800600   1.163580  -3.618840 -17.837400  -0.002796   0.006827 -11.879700  -0.002865   0.003787 -12.615100   0.391105  -1.746760 -12.621100  -0.000783   0.004264  -8.405630  -0.000992   0.002730 -15.620100  -0.435686   1.558030 -23.439100  -0.002847   0.008963 -15.610400  -0.003633   0.005155  10.389700   2.650560   5.708810  70.988000   5.907180  -1.802020   1.048570  -8.281410   9.569040  -5.092290 -19.858100   5.144410 -36.228700  31.234400  72.627200  28.702600  -0.001705   0.001036   9.351300  -0.000440   0.001503  15.983000  -0.196895  -0.687559  13.078000   0.001285   0.000695   9.154590  -0.001194   0.000669  14.673800  -0.181129  -0.691873  14.674900   0.012559   0.002234   9.773440   0.001556   0.010097  12.920900  -1.654970  -7.175120  13.024600   0.000534  -0.002655   8.674410   0.003046   0.005168  19.292600  -2.450490  -6.946990  29.162500   0.004181   0.003084  19.422300   0.005546  -0.002215  -0.417624   1.473630   0.922965   0.535626   0.432224  11.848100  -5.026110  -3.994890   4.347090   0.000000   0.000000   0.000000   0.913988   2.130590  -7.677630   0.112875   0.791009  -6.434920  -9.304920   0.245645   0.142089  -0.000000   0.000000  -0.000000
  0.546642  90.013900   0.198195  -0.162847   0.004503  -0.768951   0.061594   0.592715  -0.298819   0.126286   1.185100  -0.598318   2.523550  -1.110920   0.047753   4.149740  -2.239180   3.058120  -5.288920   0.076961   5.145740 -75.864000  19.363500   2.445060  -3.713050  -8.774570 -10.805100   8.114960  -0.338426   6.349040  44.304400  40.038800 -82.862900 -15.280000   0.006709   0.001861  -2.640030   0.001442  -0.001501 -13.971300   2.488010  -9.900130 -11.607800  -0.001524   0.006027  -8.125500  -0.011608   0.003543 -17.813500   1.159960  -3.603210 -17.850000  -0.002793   0.006824 -11.888100  -0.002863   0.003784 -12.639800   0.387805  -1.728100 -12.645700  -0.000782   0.004259  -8.422020  -0.000990   0.002728 -15.634300  -0.438651   1.566830 -23.460300  -0.002843   0.008956 -15.624500  -0.003628   0.005153  10.388500   2.655730   5.721790  70.979400   5.916900  -1.796710   1.055490  -8.290550   9.570360  -5.097070 -19.839200   5.134710 -36.246400  31.244800  72.624800  28.688300  -0.001695   0.001044   9.344140  -0.000435   0.001499  16.001500  -0.190976  -0.665971  13.093100   0.001282   0.000698   9.165170  -0.001195   0.000672  14.700300  -0.175812  -0.670208  14.701300   0.012559   0.002234   9.791070   0.001556   0.010097  12.960400  -1.656010  -7.157720  13.063900   0.000534  -0.002656   8.700590   0.003046   0.005170  19.320400  -2.445620  -6.930070  29.202900   0.004170   0.003073  19.449200   0.005538  -0.002215  -0.418309   1.450950   0.928687   0.537426   0.449585  11.854800  -5.034440  -3.980600   4.348040   0.000000   0.000000  -0.000000   0.913516   2.119580  -7.677860   0.112258   0.796989  -6.434630  -9.304950   0.257915   0.155524  -0.000000   0.000000   0.000000
  0.546691  90.013800   0.164617  -0.163103  -0.012997  -0.787225   0.061647   0.618894  -0.300775   0.126552   1.237460  -0.602269   2.559350  -1.092180   0.047943   4.208500  -2.200550   3.073090  -5.288280   0.070455   5.168900 -75.838100  19.401600   2.418660  -3.720420  -8.761570 -10.794700   8.104510  -0.393869   6.331930  44.311300  40.127500 -82.995000 -15.236600   0.006721   0.001887  -2.618310   0.001436  -0.001484 -14.015100   2.482070  -9.842960 -11.641700  -0.001517   0.006020  -8.149230  -0.011618   0.003542 -17.826700   1.152790  -3.579670 -17.862600  -0.002785   0.006816 -11.896500  -0.002858   0.003776 -12.664700   0.380149  -1.691250 -12.670300  -0.000777   0.004249  -8.438410  -0.000984   0.002723 -15.648100  -0.446991   1.595310 -23.481400  -0.002830   0.008939 -15.638600  -0.003615   0.005147  10.387000   2.660870   5.741240  70.963600   5.933570  -1.787930   1.067250  -8.308780   9.574210  -5.101070 -19.820200   5.125010 -36.269600  31.255300  72.622300  28.674000  -0.001686   0.001051   9.336990  -0.000429   0.001495  16.037800  -0.181121  -0.629978  13.122700   0.001275   0.000708   9.185870  -0.001197   0.000681  14.742000  -0.166826  -0.633906  14.743000   0.012559   0.002231   9.818810   0.001553   0.010098  13.015600  -1.657080  -7.130730  13.118900   0.000531  -0.002660   8.737180   0.003048   0.005173  19.365500  -2.438960  -6.903570  29.268900   0.004141   0.003043  19.493100   0.005517  -0.002214  -0.419054   1.428260   0.937014   0.539222   0.466944  11.861500  -5.049160  -3.956720   4.352870   0.000000   0.000000   0.000000   0.912552   2.104920  -7.678080   0.111640   0.802968  -6.434340  -9.305060   0.278763   0.177418  -0.000000   0.000000  -0.000000
  0.546723  90.013800   0.137749  -0.163365  -0.029950  -0.797664   0.061672   0.645397  -0.301658   0.126749   1.290470  -0.604081   2.591290  -1.078180   0.047656   4.260840  -2.173290   3.104860  -5.287080   0.059007   5.189290 -75.808000  19.440800   2.394960  -3.737630  -8.776120 -10.795200   8.086130  -0.424354   6.315590  44.329900  40.173300 -83.058500 -15.217100   0.006737   0.001897  -2.608560   0.001428  -0.001470 -14.005500   2.458990  -9.763360 -11.630300  -0.001508   0.006003  -8.141260  -0.011632   0.003541 -17.771600   1.142190  -3.563630 -17.807100  -0.002775   0.006803 -11.859500  -0.002848   0.003765 -12.617000   0.366019  -1.637110 -12.622200  -0.000767   0.004233  -8.406370  -0.000977   0.002714 -15.621400  -0.465522   1.665200 -23.442200  -0.002807   0.008914 -15.612500  -0.003595   0.005137  10.390700   2.656310   5.754140  70.947600   5.946050  -1.780400   1.076080  -8.329580   9.580650  -5.085860 -19.829000   5.125890 -36.235000  31.230000  72.606300  28.690500  -0.001688   0.001031   9.345250  -0.000428   0.001498  16.078500  -0.172949  -0.600119  13.155800   0.001266   0.000721   9.209100  -0.001198   0.000695  14.768500  -0.159337  -0.602740  14.769300   0.012559   0.002223   9.836360   0.001548   0.010098  13.033200  -1.655380  -7.109760  13.136200   0.000525  -0.002674   8.748710   0.003053   0.005176  19.398300  -2.436640  -6.882160  29.317500   0.004099   0.002997  19.525400   0.005491  -0.002210  -0.419759   1.468390   0.940466   0.539887   0.422259  11.857800  -5.062750  -3.937460   4.365080  -0.000000   0.000000   0.000000   0.909984   2.102490  -7.678020   0.111986   0.802780  -6.435920  -9.305280   0.296856   0.195333   0.000000   0.000000   0.000000
